<svg width="57" height="39" viewBox="0 0 57 39" fill="none" xmlns="http://www.w3.org/2000/svg">
<g clip-path="url(#clip0_45_9)">
<path d="M32.6667 15.4938V20.4938H36C37.3807 20.4938 38.5 19.3745 38.5 17.9938V10.393C38.5002 9.96005 38.332 9.54404 38.0308 9.23298L30.9492 1.57712C29.6996 0.22517 27.5907 0.142162 26.2388 1.39169C26.1746 1.45107 26.1127 1.5129 26.0534 1.57712L18.9842 9.23048C18.6739 9.54283 18.4999 9.96525 18.5 10.4055V17.9938C18.5 19.3745 19.6193 20.4938 21 20.4938H24.3333V15.4938C24.3489 13.2215 26.1836 11.3658 28.3987 11.3124C30.6879 11.2572 32.6492 13.1444 32.6667 15.4938Z" fill="#6E6E6E"/>
</g>
<path d="M13.5806 36.5H12.5918V30.1587H16.4678V31.0156H13.5806V36.5ZM18.4365 36.5879C17.1138 36.5879 16.2437 35.6782 16.2437 34.1885C16.2437 32.7031 17.1182 31.7935 18.4365 31.7935C19.7549 31.7935 20.6294 32.7031 20.6294 34.1885C20.6294 35.6782 19.7593 36.5879 18.4365 36.5879ZM18.4365 35.8057C19.1836 35.8057 19.6626 35.2168 19.6626 34.1885C19.6626 33.1646 19.1792 32.5757 18.4365 32.5757C17.6938 32.5757 17.2104 33.1646 17.2104 34.1885C17.2104 35.2168 17.6938 35.8057 18.4365 35.8057ZM22.6772 34.395C22.5894 35.7046 22.2598 36.5439 21.2227 36.5439C21.0688 36.5439 20.959 36.5176 20.9019 36.4956V35.6606C20.9458 35.6738 21.0337 35.6958 21.1523 35.6958C21.6006 35.6958 21.7588 35.1597 21.8115 34.3555L21.9697 31.877H25.1733V36.5H24.2285V32.6284H22.8047L22.6772 34.395ZM28.1836 36.5879C26.8608 36.5879 25.9907 35.6782 25.9907 34.1885C25.9907 32.7031 26.8652 31.7935 28.1836 31.7935C29.502 31.7935 30.3765 32.7031 30.3765 34.1885C30.3765 35.6782 29.5063 36.5879 28.1836 36.5879ZM28.1836 35.8057C28.9307 35.8057 29.4097 35.2168 29.4097 34.1885C29.4097 33.1646 28.9263 32.5757 28.1836 32.5757C27.4409 32.5757 26.9575 33.1646 26.9575 34.1885C26.9575 35.2168 27.4409 35.8057 28.1836 35.8057ZM33.1011 32.5669H32.1299V33.7798H33.0088C33.5449 33.7798 33.813 33.5732 33.813 33.1646C33.813 32.7822 33.5625 32.5669 33.1011 32.5669ZM33.0703 34.4434H32.1299V35.8101H33.1758C33.7119 35.8101 34.002 35.5728 34.002 35.1289C34.002 34.6719 33.6943 34.4434 33.0703 34.4434ZM31.1938 36.5V31.877H33.2944C34.1953 31.877 34.7402 32.3252 34.7402 33.0547C34.7402 33.5337 34.3975 33.9688 33.9536 34.0522V34.0874C34.5513 34.1665 34.9468 34.5884 34.9468 35.1685C34.9468 35.9814 34.3228 36.5 33.3208 36.5H31.1938ZM38.8271 36.5V34.4873H36.7354V36.5H35.7905V31.877H36.7354V33.7402H38.8271V31.877H39.772V36.5H38.8271ZM42.4219 35.8276C43.0854 35.8276 43.604 35.3706 43.604 34.7686V34.4038L42.4658 34.4741C41.8989 34.5137 41.5781 34.7642 41.5781 35.1597C41.5781 35.564 41.9121 35.8276 42.4219 35.8276ZM42.1582 36.5791C41.2529 36.5791 40.6201 36.0166 40.6201 35.186C40.6201 34.3774 41.2397 33.8809 42.3384 33.8193L43.604 33.7446V33.3887C43.604 32.8745 43.2568 32.5669 42.6768 32.5669C42.1274 32.5669 41.7847 32.8306 41.7012 33.2437H40.8047C40.8574 32.4087 41.5693 31.7935 42.7119 31.7935C43.8325 31.7935 44.5488 32.3867 44.5488 33.314V36.5H43.6392V35.7397H43.6172C43.3491 36.2539 42.7646 36.5791 42.1582 36.5791Z" fill="#6E6E6E"/>
<defs>
<clipPath id="clip0_45_9">
<rect width="20" height="20" fill="white" transform="translate(18.5 0.5)"/>
</clipPath>
</defs>
</svg>
