<svg width="57" height="39" viewBox="0 0 57 39" fill="none" xmlns="http://www.w3.org/2000/svg">
<g clip-path="url(#clip0_45_15)">
<path d="M28.5 10.5C31.2614 10.5 33.5 8.26142 33.5 5.5C33.5 2.73858 31.2614 0.5 28.5 0.5C25.7386 0.5 23.5 2.73858 23.5 5.5C23.5 8.26142 25.7386 10.5 28.5 10.5Z" fill="white"/>
<path d="M28.5 12.1667C24.3598 12.1713 21.0046 15.5265 21 19.6667C21 20.1269 21.3731 20.5 21.8333 20.5H35.1666C35.6269 20.5 36 20.1269 36 19.6667C35.9954 15.5265 32.6402 12.1713 28.5 12.1667Z" fill="white"/>
</g>
<path d="M3.63135 30.0532C5.45508 30.0532 6.60205 31.3145 6.60205 33.3315C6.60205 35.3486 5.45508 36.6055 3.63135 36.6055C1.80322 36.6055 0.660645 35.3486 0.660645 33.3315C0.660645 31.3145 1.80322 30.0532 3.63135 30.0532ZM3.63135 30.9189C2.42725 30.9189 1.66699 31.8506 1.66699 33.3315C1.66699 34.8081 2.42725 35.7397 3.63135 35.7397C4.83545 35.7397 5.59131 34.8081 5.59131 33.3315C5.59131 31.8506 4.83545 30.9189 3.63135 30.9189ZM11.458 33.3579H10.5439C10.4209 32.9316 10.0693 32.5845 9.48047 32.5845C8.74658 32.5845 8.26758 33.2129 8.26758 34.1885C8.26758 35.1904 8.75098 35.7925 9.48926 35.7925C10.0518 35.7925 10.4209 35.5112 10.5527 35.0278H11.4668C11.3306 35.9551 10.5703 36.5879 9.48047 36.5879C8.15771 36.5879 7.30518 35.6694 7.30518 34.1885C7.30518 32.7383 8.15771 31.7935 9.47168 31.7935C10.6143 31.7935 11.3262 32.5054 11.458 33.3579ZM14.2222 36.5879C12.8994 36.5879 12.0293 35.6782 12.0293 34.1885C12.0293 32.7031 12.9038 31.7935 14.2222 31.7935C15.5405 31.7935 16.415 32.7031 16.415 34.1885C16.415 35.6782 15.5449 36.5879 14.2222 36.5879ZM14.2222 35.8057C14.9692 35.8057 15.4482 35.2168 15.4482 34.1885C15.4482 33.1646 14.9648 32.5757 14.2222 32.5757C13.4795 32.5757 12.9961 33.1646 12.9961 34.1885C12.9961 35.2168 13.4795 35.8057 14.2222 35.8057ZM19.2935 36.5879C17.8477 36.5879 17.0654 35.6431 17.0654 33.8149C17.0654 31.2485 17.8125 30.207 19.5703 30.1455L19.9834 30.1323C20.48 30.1104 20.981 30.0181 21.1919 29.9038V30.6904C21.0732 30.8003 20.603 30.9146 20.0361 30.9365L19.6318 30.9497C18.397 30.9937 18.0059 31.5474 17.8345 32.8525H17.8696C18.1641 32.3076 18.7222 32.0088 19.4473 32.0088C20.6953 32.0088 21.4951 32.8789 21.4951 34.2412C21.4951 35.6958 20.6558 36.5879 19.2935 36.5879ZM19.2847 35.7925C20.0669 35.7925 20.5239 35.2388 20.5239 34.2544C20.5239 33.3184 20.0669 32.7822 19.2847 32.7822C18.498 32.7822 18.0366 33.3184 18.0366 34.2544C18.0366 35.2388 18.4937 35.7925 19.2847 35.7925ZM23.2485 36.5H22.3125V31.877H23.2485V35.1157H23.2837L25.4194 31.877H26.3555V36.5H25.4194V33.2524H25.3843L23.2485 36.5ZM31.3213 33.3579H30.4072C30.2842 32.9316 29.9326 32.5845 29.3438 32.5845C28.6099 32.5845 28.1309 33.2129 28.1309 34.1885C28.1309 35.1904 28.6143 35.7925 29.3525 35.7925C29.915 35.7925 30.2842 35.5112 30.416 35.0278H31.3301C31.1938 35.9551 30.4336 36.5879 29.3438 36.5879C28.021 36.5879 27.1685 35.6694 27.1685 34.1885C27.1685 32.7383 28.021 31.7935 29.335 31.7935C30.4775 31.7935 31.1895 32.5054 31.3213 33.3579ZM35.5137 31.877V32.6284H34.0635V36.5H33.1187V32.6284H31.6685V31.877H35.5137ZM36.2432 36.5V31.877H37.1924V36.5H36.2432ZM36.7178 31.2002C36.4146 31.2002 36.1685 30.9585 36.1685 30.6597C36.1685 30.3564 36.4146 30.1147 36.7178 30.1147C37.0254 30.1147 37.2715 30.3564 37.2715 30.6597C37.2715 30.9585 37.0254 31.2002 36.7178 31.2002ZM43.1514 35.7485V32.6284H41.543L41.4155 34.395C41.3804 34.9399 41.2661 35.4146 41.0552 35.7134V35.7485H43.1514ZM40.5234 37.7129H39.6489V35.7485H40.0225C40.3608 35.5376 40.5146 34.9795 40.5586 34.3555L40.7256 31.877H44.0962V35.7485H44.8125V37.7129H43.9336V36.5H40.5234V37.7129ZM47.0757 35.8276C47.7393 35.8276 48.2578 35.3706 48.2578 34.7686V34.4038L47.1196 34.4741C46.5527 34.5137 46.2319 34.7642 46.2319 35.1597C46.2319 35.564 46.5659 35.8276 47.0757 35.8276ZM46.812 36.5791C45.9067 36.5791 45.2739 36.0166 45.2739 35.186C45.2739 34.3774 45.8936 33.8809 46.9922 33.8193L48.2578 33.7446V33.3887C48.2578 32.8745 47.9106 32.5669 47.3306 32.5669C46.7812 32.5669 46.4385 32.8306 46.355 33.2437H45.4585C45.5112 32.4087 46.2231 31.7935 47.3657 31.7935C48.4863 31.7935 49.2026 32.3867 49.2026 33.314V36.5H48.293V35.7397H48.271C48.0029 36.2539 47.4185 36.5791 46.812 36.5791ZM53.2368 36.5V34.4873H51.145V36.5H50.2002V31.877H51.145V33.7402H53.2368V31.877H54.1816V36.5H53.2368ZM55.2451 36.5V31.877H56.1943V36.5H55.2451ZM55.7197 31.2002C55.4165 31.2002 55.1704 30.9585 55.1704 30.6597C55.1704 30.3564 55.4165 30.1147 55.7197 30.1147C56.0273 30.1147 56.2734 30.3564 56.2734 30.6597C56.2734 30.9585 56.0273 31.2002 55.7197 31.2002Z" fill="white"/>
<defs>
<clipPath id="clip0_45_15">
<rect width="20" height="20" fill="white" transform="translate(18.5 0.5)"/>
</clipPath>
</defs>
</svg>
