<svg width="57" height="39" viewBox="0 0 57 39" fill="none" xmlns="http://www.w3.org/2000/svg">
<g clip-path="url(#clip0_45_5)">
<path d="M31.8333 2.16667H31.6908C31.3467 1.19667 30.42 0.5 29.3333 0.5H27.6667C26.58 0.5 25.6533 1.19667 25.3092 2.16667H25.1667C22.8692 2.16667 21 4.03583 21 6.33333V16.3333C21 18.6308 22.8692 20.5 25.1667 20.5H31.8333C34.1308 20.5 36 18.6308 36 16.3333V6.33333C36 4.03583 34.1308 2.16667 31.8333 2.16667ZM24.3333 15.5C23.8733 15.5 23.5 15.1267 23.5 14.6667C23.5 14.2067 23.8733 13.8333 24.3333 13.8333C24.7933 13.8333 25.1667 14.2067 25.1667 14.6667C25.1667 15.1267 24.7933 15.5 24.3333 15.5ZM32.6667 15.5H27.6667C27.2067 15.5 26.8333 15.1267 26.8333 14.6667C26.8333 14.2067 27.2067 13.8333 27.6667 13.8333H32.6667C33.1267 13.8333 33.5 14.2067 33.5 14.6667C33.5 15.1267 33.1267 15.5 32.6667 15.5ZM24.3333 12.1667C23.8733 12.1667 23.5 11.7933 23.5 11.3333C23.5 10.8733 23.8733 10.5 24.3333 10.5C24.7933 10.5 25.1667 10.8733 25.1667 11.3333C25.1667 11.7933 24.7933 12.1667 24.3333 12.1667ZM32.6667 12.1667H27.6667C27.2067 12.1667 26.8333 11.7933 26.8333 11.3333C26.8333 10.8733 27.2067 10.5 27.6667 10.5H32.6667C33.1267 10.5 33.5 10.8733 33.5 11.3333C33.5 11.7933 33.1267 12.1667 32.6667 12.1667ZM24.3333 8.83333C23.8733 8.83333 23.5 8.46 23.5 8C23.5 7.54 23.8733 7.16667 24.3333 7.16667C24.7933 7.16667 25.1667 7.54 25.1667 8C25.1667 8.46 24.7933 8.83333 24.3333 8.83333ZM32.6667 8.83333H27.6667C27.2067 8.83333 26.8333 8.46 26.8333 8C26.8333 7.54 27.2067 7.16667 27.6667 7.16667H32.6667C33.1267 7.16667 33.5 7.54 33.5 8C33.5 8.46 33.1267 8.83333 32.6667 8.83333Z" fill="white"/>
</g>
<path d="M15.8438 33.6699V32.8481H16.6963C17.4214 32.8481 17.9224 32.4219 17.9224 31.811C17.9224 31.2046 17.4697 30.8267 16.7402 30.8267C15.9976 30.8267 15.5186 31.2134 15.4614 31.8418H14.5298C14.5957 30.708 15.4526 30.0049 16.771 30.0049C18.019 30.0049 18.8936 30.708 18.8936 31.71C18.8936 32.4175 18.4146 33.0063 17.7114 33.1733V33.2085C18.5596 33.314 19.0869 33.916 19.0869 34.7773C19.0869 35.8452 18.0806 36.6538 16.7534 36.6538C15.3735 36.6538 14.4243 35.9111 14.3672 34.7949H15.3164C15.3735 35.4189 15.936 35.8188 16.749 35.8188C17.54 35.8188 18.0762 35.375 18.0762 34.729C18.0762 34.0654 17.5708 33.6699 16.7227 33.6699H15.8438ZM21.5435 35.8276C22.207 35.8276 22.7256 35.3706 22.7256 34.7686V34.4038L21.5874 34.4741C21.0205 34.5137 20.6997 34.7642 20.6997 35.1597C20.6997 35.564 21.0337 35.8276 21.5435 35.8276ZM21.2798 36.5791C20.3745 36.5791 19.7417 36.0166 19.7417 35.186C19.7417 34.3774 20.3613 33.8809 21.46 33.8193L22.7256 33.7446V33.3887C22.7256 32.8745 22.3784 32.5669 21.7983 32.5669C21.249 32.5669 20.9062 32.8306 20.8228 33.2437H19.9263C19.979 32.4087 20.6909 31.7935 21.8335 31.7935C22.9541 31.7935 23.6704 32.3867 23.6704 33.314V36.5H22.7607V35.7397H22.7388C22.4707 36.2539 21.8862 36.5791 21.2798 36.5791ZM26.4214 34.1841H27.2607V32.624H26.4214C25.8809 32.624 25.5337 32.9316 25.5337 33.4326C25.5337 33.8721 25.8853 34.1841 26.4214 34.1841ZM27.2607 36.5V34.9136H26.5576L25.437 36.5H24.3647L25.626 34.751C24.9844 34.562 24.5889 34.083 24.5889 33.437C24.5889 32.4746 25.292 31.877 26.373 31.877H28.1924V36.5H27.2607ZM31.1191 32.5669H30.1479V33.7798H31.0269C31.563 33.7798 31.8311 33.5732 31.8311 33.1646C31.8311 32.7822 31.5806 32.5669 31.1191 32.5669ZM31.0884 34.4434H30.1479V35.8101H31.1938C31.73 35.8101 32.02 35.5728 32.02 35.1289C32.02 34.6719 31.7124 34.4434 31.0884 34.4434ZM29.2119 36.5V31.877H31.3125C32.2134 31.877 32.7583 32.3252 32.7583 33.0547C32.7583 33.5337 32.4155 33.9688 31.9717 34.0522V34.0874C32.5693 34.1665 32.9648 34.5884 32.9648 35.1685C32.9648 35.9814 32.3408 36.5 31.3389 36.5H29.2119ZM35.6851 34.0479L37.812 36.5H36.6211L34.7886 34.3687H34.7534V36.5H33.8086V31.877H34.7534V33.8545H34.7886L36.5991 31.877H37.7329L35.6851 34.0479ZM39.3413 36.5H38.4053V31.877H39.3413V35.1157H39.3765L41.5122 31.877H42.4482V36.5H41.5122V33.2524H41.4771L39.3413 36.5Z" fill="white"/>
<defs>
<clipPath id="clip0_45_5">
<rect width="20" height="20" fill="white" transform="translate(18.5 0.5)"/>
</clipPath>
</defs>
</svg>
